# xmcd
#
# Track frame offsets:
#	150
#	26605
#	52658
#	78399
#	98901
#	113906
#	133434
#	151286
#	178736
#
# Disc length: 2591 seconds
#
# Revision: 0
# Processed by: cddbd v1.5.2PL0 Copyright (c) Steve Scherf et al.
# Submitted via: EasyCDDAExtractor 16.0.8.1
#
DISCID=6f0a1d09
DTITLE=Mága Zoltán - Szép vagy, gyönyörű vagy Magyarország
DYEAR=2011
DGENRE=
TTITLE0=Szép vagy, gyönyörű vagy Magyarország
TTITLE1=A Csitári hegyek alatt
TTITLE2=Elindultam szép hazámból
TTITLE3=Csillagok, csillagok szépen ragyogjatok
TTITLE4=Székely himnusz
TTITLE5=Csak egy kislány van a világon
TTITLE6=Hullámzó Balaton tetején 
TTITLE7=Hejre Kati
TTITLE8=Gipsy variációk
EXTD=
EXTT0=
EXTT1=
EXTT2=
EXTT3=
EXTT4=
EXTT5=
EXTT6=
EXTT7=
EXTT8=
PLAYORDER=
